<svg width="27" height="32" viewBox="0 0 27 32" fill="none" xmlns="http://www.w3.org/2000/svg">
<path d="M14.098 31.8856C11.3276 31.8856 8.94065 31.2232 6.93706 29.8983C4.93347 28.5734 3.38674 26.7186 2.29593 24.3337C1.20606 21.9195 0.660645 19.1225 0.660645 15.9428C0.660645 12.7042 1.22018 9.89252 2.3402 7.50769C3.46021 5.1229 5.03614 3.28278 7.06987 1.98733C9.13281 0.662443 11.549 0 14.3184 0C16.4991 0 18.5027 0.426907 20.3301 1.28072C22.1566 2.13454 23.645 3.37111 24.7942 4.99041C25.9726 6.58027 26.6357 8.50871 26.7836 10.7757H19.7555C19.5784 9.127 19.0189 7.80211 18.076 6.80108C17.133 5.80006 15.8802 5.29955 14.3184 5.29955C12.9629 5.29955 11.7553 5.71174 10.6946 6.5361C9.63301 7.36048 8.7937 8.56761 8.17482 10.1575C7.58514 11.7473 7.29031 13.6758 7.29031 15.9428C7.29031 18.2098 7.58514 20.1383 8.17482 21.7282C8.7645 23.318 9.55953 24.5252 10.5618 25.3495C11.5933 26.1738 12.7717 26.5861 14.098 26.5861C15.1879 26.5861 16.1458 26.3653 16.971 25.9236C17.7953 25.4525 18.4584 24.7901 18.9595 23.9363C19.4899 23.0824 19.8139 22.0667 19.9317 20.889H26.9155C26.7092 23.1267 26.0611 25.0698 24.9713 26.7186C23.8804 28.3673 22.4223 29.648 20.5948 30.5608C18.7683 31.444 16.6027 31.8856 14.098 31.8856Z" fill="#D27487"/>
</svg>
